<svg width="23" height="23" viewBox="0 0 23 23" fill="none" xmlns="http://www.w3.org/2000/svg">
<g clip-path="url(#clip0_32_230)">
<path d="M9.58343 22.9943C7.68785 22.9944 5.8348 22.4324 4.25864 21.3793C2.68249 20.3263 1.45404 18.8294 0.728676 17.0781C0.00330821 15.3268 -0.186396 13.3997 0.183557 11.5406C0.553511 9.68145 1.4665 7.97379 2.80706 6.63359L9.58343 0.00575129L16.3521 6.62688C18.1496 8.42485 19.16 10.8627 19.1614 13.405C19.1628 15.9474 18.1552 18.3863 16.3598 20.1863C15.4722 21.0794 14.4162 21.7874 13.253 22.2694C12.0898 22.7513 10.8425 22.9977 9.58343 22.9943ZM9.58343 2.68334L4.15448 7.99634C3.08416 9.06974 2.35606 10.4363 2.0622 11.9234C1.76834 13.4105 1.92191 14.9514 2.5035 16.3512C3.0851 17.751 4.0686 18.947 5.32973 19.7881C6.59086 20.6291 8.073 21.0774 9.58884 21.0763C11.1047 21.0753 12.5862 20.6249 13.8461 19.782C15.1061 18.9392 16.0879 17.7418 16.6675 16.3412C17.2471 14.9405 17.3985 13.3995 17.1025 11.9128C16.8066 10.4261 16.0766 9.06056 15.0047 7.98867L9.58343 2.68334ZM20.1251 5.75C19.5565 5.75 19.0006 5.58139 18.5278 5.26548C18.055 4.94957 17.6865 4.50055 17.4689 3.97522C17.2513 3.44988 17.1944 2.87181 17.3053 2.31412C17.4163 1.75642 17.6901 1.24415 18.0922 0.842069C18.4942 0.439993 19.0065 0.166176 19.5642 0.0552436C20.1219 -0.0556889 20.7 0.0012457 21.2253 0.218848C21.7507 0.43645 22.1997 0.804946 22.5156 1.27774C22.8315 1.75053 23.0001 2.30638 23.0001 2.875C23.0001 3.6375 22.6972 4.36877 22.158 4.90793C21.6189 5.4471 20.8876 5.75 20.1251 5.75ZM20.1251 1.91667C19.9356 1.91667 19.7503 1.97287 19.5927 2.07818C19.4351 2.18348 19.3122 2.33315 19.2397 2.50826C19.1672 2.68338 19.1482 2.87606 19.1852 3.06196C19.2222 3.24786 19.3134 3.41862 19.4475 3.55265C19.5815 3.68667 19.7522 3.77794 19.9381 3.81492C20.124 3.8519 20.3167 3.83292 20.4918 3.76039C20.6669 3.68785 20.8166 3.56502 20.9219 3.40742C21.0272 3.24983 21.0834 3.06454 21.0834 2.875C21.0834 2.62084 20.9825 2.37708 20.8027 2.19736C20.623 2.01764 20.3793 1.91667 20.1251 1.91667Z" fill="#09ADFF"/>
</g>
<defs>
<clipPath id="clip0_32_230">
<rect width="23" height="23" fill="white"/>
</clipPath>
</defs>
</svg>
