<svg width="22" height="22" viewBox="0 0 22 22" fill="none" xmlns="http://www.w3.org/2000/svg">
<path d="M11 0C4.925 0 0 4.925 0 11C0 17.0753 4.925 22 11 22C17.0753 22 22 17.0753 22 11C22 4.925 17.0753 0 11 0ZM12 19.9433V17C12 16.7348 11.8946 16.4804 11.7071 16.2929C11.5196 16.1054 11.2652 16 11 16C10.7348 16 10.4804 16.1054 10.2929 16.2929C10.1054 16.4804 10 16.7348 10 17V19.9433C5.82875 19.482 2.518 16.1715 2.057 12H5C5.26522 12 5.51957 11.8946 5.70711 11.7071C5.89464 11.5196 6 11.2652 6 11C6 10.7348 5.89464 10.4804 5.70711 10.2929C5.51957 10.1054 5.26522 10 5 10H2.057C2.518 5.82875 5.82875 2.518 10 2.057V5C10 5.26522 10.1054 5.51957 10.2929 5.70711C10.4804 5.89464 10.7348 6 11 6C11.2652 6 11.5196 5.89464 11.7071 5.70711C11.8946 5.51957 12 5.26522 12 5V2.057C16.1715 2.518 19.482 5.82875 19.9433 10H17C16.7348 10 16.4804 10.1054 16.2929 10.2929C16.1054 10.4804 16 10.7348 16 11C16 11.2652 16.1054 11.5196 16.2929 11.7071C16.4804 11.8946 16.7348 12 17 12H19.9433C19.482 16.1715 16.1715 19.482 12 19.9433Z" fill="black"/>
</svg>
