<svg width="30" height="30" viewBox="0 0 30 30" fill="none" xmlns="http://www.w3.org/2000/svg">
<path d="M14.9527 2.46681e-05C0.418948 -0.0237253 -5.5648 18.9625 6.3427 27.2725L6.66645 27.5H23.2389L23.5627 27.2725C35.4752 18.9588 29.4789 -0.0249753 14.9527 2.46681e-05ZM22.4377 25H7.4677C-2.08855 17.9 3.0402 2.47002 14.9527 2.50002C26.8652 2.47002 31.9939 17.9025 22.4377 25ZM7.4527 15C7.44922 15.9981 7.64663 16.9867 8.03318 17.9069C8.41973 18.8271 8.9875 19.6601 9.7027 20.3563L7.9527 22.1438C6.52032 20.7354 5.54414 18.9292 5.15074 16.9593C4.75735 14.9894 4.96489 12.9468 5.74645 11.0963L7.7152 13.065C7.54304 13.6957 7.45478 14.3463 7.4527 15ZM24.9527 15C24.9563 16.3316 24.6919 17.6504 24.1752 18.8777C23.6586 20.105 22.9002 21.2157 21.9452 22.1438L20.1952 20.3563C25.6827 15.0788 20.3489 5.73127 13.0164 7.76252L11.0489 5.79377C12.5702 5.16375 14.2229 4.9169 15.8618 5.07491C17.5008 5.23291 19.0758 5.79093 20.4487 6.69997C21.8216 7.609 22.9502 8.84124 23.7356 10.2884C24.5209 11.7356 24.9388 13.3535 24.9527 15ZM17.4527 15C17.4525 15.3558 17.3764 15.7075 17.2295 16.0315C17.0825 16.3555 16.8681 16.6444 16.6006 16.8789C16.333 17.1134 16.0185 17.2881 15.678 17.3914C15.3375 17.4946 14.9789 17.5239 14.6262 17.4775C14.2734 17.431 13.9347 17.3098 13.6325 17.1219C13.3304 16.934 13.0719 16.6838 12.8742 16.388C12.6765 16.0922 12.5442 15.7576 12.4862 15.4066C12.4281 15.0556 12.4457 14.6962 12.5377 14.3525L7.19395 9.00877L8.96145 7.24127L14.3052 12.585C14.6755 12.4878 15.0632 12.4765 15.4385 12.5522C15.8138 12.6278 16.1669 12.7883 16.4707 13.0213C16.7744 13.2544 17.0208 13.5539 17.1911 13.8968C17.3613 14.2398 17.4508 14.6172 17.4527 15Z" fill="#FF0707"/>
</svg>
