<svg width="22" height="22" viewBox="0 0 22 22" fill="none" xmlns="http://www.w3.org/2000/svg">
<g clip-path="url(#clip0_32_255)">
<path d="M17.3433 20.1666C17.2714 19.6578 17.1381 19.1594 16.9464 18.6826L20.9797 16.3368L20.0576 14.7528L16.0243 17.0995C15.7172 16.7133 15.3669 16.3636 14.9802 16.0572L17.3204 12.0331L15.7355 11.1109L13.3925 15.1341C12.9181 14.944 12.4226 14.8117 11.9167 14.74V10.0833H10.0833V14.74C9.58061 14.8106 9.08819 14.9414 8.61667 15.1296L6.27917 11.1109L4.69883 12.0331L7.0345 16.049C6.64499 16.3557 6.29218 16.7064 5.98308 17.094L1.96167 14.7528L1.0395 16.3368L5.05633 18.6752C4.86333 19.1544 4.72913 19.6552 4.65667 20.1666H0V22H22V20.1666H17.3433ZM6.50833 20.1666C6.71872 19.1305 7.28084 18.199 8.09943 17.53C8.91802 16.8609 9.94276 16.4954 11 16.4954C12.0572 16.4954 13.082 16.8609 13.9006 17.53C14.7192 18.199 15.2813 19.1305 15.4917 20.1666H6.50833Z" fill="#FFA600"/>
<path d="M14.0186 4.85189L15.3148 3.55572L12.2962 0.537141C11.9524 0.193444 11.4862 0.000366211 11.0001 0.000366211C10.5139 0.000366211 10.0477 0.193444 9.70389 0.537141L6.6853 3.55572L7.98147 4.85189L10.0834 2.74997V8.24997H11.9167V2.74997L14.0186 4.85189Z" fill="#FFA600"/>
</g>
<defs>
<clipPath id="clip0_32_255">
<rect width="22" height="22" fill="white"/>
</clipPath>
</defs>
</svg>
