<svg width="22" height="22" viewBox="0 0 22 22" fill="none" xmlns="http://www.w3.org/2000/svg">
<g clip-path="url(#clip0_32_249)">
<path d="M17.3433 20.1667C17.2714 19.6578 17.1381 19.1595 16.9464 18.6826L20.9797 16.3368L20.0576 14.7528L16.0243 17.0995C15.7169 16.7133 15.3663 16.3636 14.9792 16.0573L17.3195 12.0331L15.7346 11.1118L13.3925 15.1342C12.9181 14.9441 12.4226 14.8117 11.9167 14.74V10.0833H10.0833V14.74C9.58061 14.8107 9.08819 14.9415 8.61667 15.1296L6.27917 11.1118L4.69883 12.0331L7.0345 16.049C6.64499 16.3557 6.29218 16.7064 5.98308 17.094L1.96167 14.7528L1.0395 16.3368L5.05633 18.6753C4.86291 19.1543 4.7287 19.6551 4.65667 20.1667H0V22H22V20.1667H17.3433ZM6.50833 20.1667C6.71872 19.1306 7.28084 18.1991 8.09943 17.53C8.91802 16.8609 9.94276 16.4954 11 16.4954C12.0572 16.4954 13.082 16.8609 13.9006 17.53C14.7192 18.1991 15.2813 19.1306 15.4917 20.1667H6.50833Z" fill="#FFA600"/>
<path d="M7.98147 3.39808L6.6853 4.69425L9.70389 7.71283C10.0477 8.05653 10.5139 8.24961 11.0001 8.24961C11.4862 8.24961 11.9524 8.05653 12.2962 7.71283L15.3148 4.69425L14.0186 3.39808L11.9167 5.5V0H10.0834V5.5L7.98147 3.39808Z" fill="#FFA600"/>
</g>
<defs>
<clipPath id="clip0_32_249">
<rect width="22" height="22" fill="white"/>
</clipPath>
</defs>
</svg>
