<svg width="20" height="24" viewBox="0 0 20 24" fill="none" xmlns="http://www.w3.org/2000/svg">
<g clip-path="url(#clip0_32_134)">
<path d="M0 12.1765H20V14.1372H0V12.1765ZM16.0233 16.6755C15.4342 17.202 14.5658 17.201 13.9783 16.6755C13.1225 15.9078 11.8792 15.9088 11.0233 16.6755C10.4342 17.202 9.56583 17.202 8.9775 16.6755C8.12167 15.9098 6.87833 15.9098 6.02333 16.6755C5.43417 17.202 4.56583 17.202 3.9775 16.6755C3.12167 15.9098 1.87833 15.9098 1.02333 16.6755C0.728333 16.9392 0.375 17.0784 0 17.0784V19.0392C0.7425 19.0392 1.445 18.7618 2.0325 18.2363C2.29417 18.001 2.705 18.001 2.96833 18.2363C4.14167 19.2872 5.85833 19.2872 7.0325 18.2363C7.29417 18.001 7.705 18.001 7.96833 18.2363C9.14167 19.2872 10.8583 19.2882 12.0333 18.2363C12.295 18.0029 12.7067 18.002 12.9683 18.2363C14.1417 19.2872 15.8583 19.2882 17.0333 18.2363C17.295 18.0029 17.7067 18.002 17.9683 18.2363C18.555 18.7618 19.2583 19.0392 20 19.0392V17.0784C19.6258 17.0784 19.2717 16.9382 18.9775 16.6765C18.1217 15.9088 16.8783 15.9098 16.0225 16.6765L16.0233 16.6755ZM1.25 21C0.56 21 0 21.6588 0 22.4706C0 23.2823 0.56 23.9412 1.25 23.9412C1.94 23.9412 2.5 23.2823 2.5 22.4706C2.5 21.6588 1.94 21 1.25 21ZM10 21C9.31 21 8.75 21.6588 8.75 22.4706C8.75 23.2823 9.31 23.9412 10 23.9412C10.69 23.9412 11.25 23.2823 11.25 22.4706C11.25 21.6588 10.69 21 10 21ZM18.75 21C18.06 21 17.5 21.6588 17.5 22.4706C17.5 23.2823 18.06 23.9412 18.75 23.9412C19.44 23.9412 20 23.2823 20 22.4706C20 21.6588 19.44 21 18.75 21ZM6.55833 8.04117C6.75583 8.18333 6.97167 8.2549 7.19 8.2549C7.3775 8.2549 7.56667 8.20195 7.74583 8.09607C8.14167 7.86274 8.44167 7.34509 8.54667 6.71176L9.63667 0.412739H8.27667C8.27667 0.412739 7.20667 6.55097 7.19 6.59705C7.17417 6.55686 6.05167 0.412739 6.05167 0.412739H4.69083L5.84167 6.7549C5.93167 7.3049 6.19333 7.77744 6.55833 8.04117ZM2.08333 8.2549C3.23417 8.2549 4.16667 7.15784 4.16667 5.80392V0.411758H2.83333V5.80392C2.83333 6.29019 2.49667 6.68627 2.08333 6.68627C1.67 6.68627 1.33333 6.29019 1.33333 5.80392V0.411758H0V5.80392C0 7.15784 0.9325 8.2549 2.08333 8.2549ZM18.3333 0.411758H14.1667V2.37254H17.155L11.25 9.3196L9.98833 7.83529C9.77333 8.47941 9.43417 9.03627 9.00167 9.44705L11.25 12.0922L18.3333 3.75882V7.2745H20V2.37254C20 1.29117 19.2525 0.411758 18.3333 0.411758Z" fill="#4151D2"/>
</g>
<defs>
<clipPath id="clip0_32_134">
<rect width="20" height="23.5294" fill="white" transform="translate(0 0.411758)"/>
</clipPath>
</defs>
</svg>
