<svg width="30" height="30" viewBox="0 0 30 30" fill="none" xmlns="http://www.w3.org/2000/svg">
<g clip-path="url(#clip0_73_2)">
<path d="M21.4062 3.01625L21.0062 2.46375L20.3237 2.5025C8.85123 3.1525 0.837483 13.8025 0.501233 14.2562L-0.0487671 15L0.501233 15.7437C0.837483 16.1975 8.85123 26.8475 20.3225 27.4975L21.005 27.5362L21.405 26.9837C21.5525 26.7812 24.9987 21.9437 24.9987 15C24.9987 8.05625 21.5525 3.21875 21.4062 3.01625ZM19.7462 24.945C11.4637 24.1162 5.04998 17.29 3.11373 15C5.04998 12.71 11.4637 5.88375 19.7462 5.055C20.0225 5.51625 20.425 6.26375 20.835 7.21C17.4675 8.2025 15.0012 11.3162 15.0012 15.0012C15.0012 18.6862 17.4687 21.8 20.835 22.7925C20.4237 23.7375 20.0225 24.485 19.7462 24.9475V24.945ZM22.2437 17.9837C22.1012 18.8562 21.9112 19.6675 21.69 20.4162C19.2862 19.7775 17.5 17.6025 17.5 15C17.5 12.3975 19.285 10.2225 21.69 9.58375C21.9112 10.3337 22.1012 11.1437 22.2437 12.0162C20.95 12.3987 20 13.5825 20 15C20 16.4175 20.95 17.6012 22.2437 17.9837ZM30 15C30 23.0212 26.6425 28.615 26.5 28.8487L24.365 27.5475C24.3962 27.4962 27.5 22.2875 27.5 15C27.5 7.7125 24.3962 2.50375 24.365 2.4525L26.5 1.15125C26.6425 1.38625 30 6.97875 30 15Z" fill="#890CF7"/>
</g>
<defs>
<clipPath id="clip0_73_2">
<rect width="30" height="30" fill="white"/>
</clipPath>
</defs>
</svg>
