<svg width="22" height="22" viewBox="0 0 22 22" fill="none" xmlns="http://www.w3.org/2000/svg">
<g clip-path="url(#clip0_32_235)">
<path d="M0 11C0 10.7569 0.0965771 10.5237 0.268485 10.3518C0.440394 10.1799 0.673552 10.0833 0.916667 10.0833H6.41667C6.65978 10.0833 6.89294 10.1799 7.06485 10.3518C7.23676 10.5237 7.33333 10.7569 7.33333 11C7.33333 11.2431 7.23676 11.4763 7.06485 11.6482C6.89294 11.8201 6.65978 11.9167 6.41667 11.9167H0.916667C0.673552 11.9167 0.440394 11.8201 0.268485 11.6482C0.0965771 11.4763 0 11.2431 0 11ZM19.1721 10.1805C19.6273 9.60751 19.9386 8.93386 20.0802 8.21589C20.2217 7.49792 20.1892 6.7565 19.9855 6.05364C19.7818 5.35078 19.4127 4.70692 18.9092 4.17591C18.4057 3.64489 17.7823 3.24216 17.0913 3.0014C16.4002 2.76064 15.6616 2.68885 14.9371 2.79202C14.2126 2.8952 13.5234 3.17035 12.927 3.59446C12.3307 4.01858 11.8445 4.57932 11.5093 5.22979C11.174 5.88026 10.9994 6.60155 11 7.33334C11 7.57645 11.0966 7.80961 11.2685 7.98152C11.4404 8.15343 11.6736 8.25 11.9167 8.25C12.1598 8.25 12.3929 8.15343 12.5648 7.98152C12.7368 7.80961 12.8333 7.57645 12.8333 7.33334C12.8333 6.78944 12.9946 6.25775 13.2968 5.80552C13.599 5.35328 14.0285 5.00081 14.531 4.79267C15.0335 4.58453 15.5864 4.53007 16.1198 4.63618C16.6533 4.74229 17.1433 5.0042 17.5279 5.38879C17.9125 5.77339 18.1744 6.26339 18.2805 6.79684C18.3866 7.33029 18.3321 7.88322 18.124 8.38572C17.9159 8.88821 17.5634 9.3177 17.1112 9.61988C16.6589 9.92205 16.1272 10.0833 15.5833 10.0833H10.0833C9.84022 10.0833 9.60706 10.1799 9.43515 10.3518C9.26324 10.5237 9.16667 10.7569 9.16667 11C9.16667 11.2431 9.26324 11.4763 9.43515 11.6482C9.60706 11.8201 9.84022 11.9167 10.0833 11.9167H18.3333C18.8196 11.9167 19.2859 12.1098 19.6297 12.4536C19.9735 12.7975 20.1667 13.2638 20.1667 13.75C20.1584 15.8923 17.1591 16.1773 16.4478 14.3614C16.3668 14.1322 16.1981 13.9445 15.9787 13.8396C15.7594 13.7347 15.5073 13.7213 15.2781 13.8023C15.0488 13.8832 14.8611 14.0519 14.7563 14.2713C14.6514 14.4906 14.638 14.7427 14.7189 14.9719C16.1471 18.7138 21.956 17.9474 22 13.75C21.9989 12.9237 21.7191 12.1218 21.206 11.4741C20.6928 10.8264 19.9763 10.3706 19.1721 10.1805ZM10.0833 14.6667H0.916667C0.673552 14.6667 0.440394 14.7632 0.268485 14.9352C0.0965771 15.1071 0 15.3402 0 15.5833C0 15.8265 0.0965771 16.0596 0.268485 16.2315C0.440394 16.4034 0.673552 16.5 0.916667 16.5H10.0833C10.5696 16.5 11.0359 16.6932 11.3797 17.037C11.7235 17.3808 11.9167 17.8471 11.9167 18.3333C11.9084 20.4756 8.90908 20.7607 8.19775 18.9448C8.15766 18.8312 8.09561 18.7267 8.01514 18.6372C7.93466 18.5477 7.83734 18.4748 7.72872 18.4229C7.62011 18.371 7.50233 18.341 7.38212 18.3346C7.2619 18.3282 7.1416 18.3455 7.02808 18.3856C6.91457 18.4257 6.81006 18.4877 6.72052 18.5682C6.63099 18.6487 6.55818 18.746 6.50625 18.8546C6.45433 18.9632 6.42431 19.081 6.4179 19.2012C6.4115 19.3214 6.42883 19.4417 6.46892 19.5553C7.89708 23.2971 13.706 22.5308 13.75 18.3333C13.75 17.3609 13.3637 16.4282 12.6761 15.7406C11.9884 15.053 11.0558 14.6667 10.0833 14.6667ZM0.916667 7.33334H6.41667C7.38913 7.33334 8.32176 6.94703 9.00939 6.25939C9.69703 5.57176 10.0833 4.63913 10.0833 3.66667C10.0393 -0.532581 4.22858 -1.29616 2.80225 2.44475C2.72129 2.67401 2.73472 2.92604 2.83959 3.14539C2.94445 3.36475 3.13216 3.53346 3.36142 3.61442C3.59067 3.69538 3.8427 3.68195 4.06206 3.57708C4.28141 3.47222 4.45013 3.28451 4.53108 3.05525C5.24333 1.23842 8.24175 1.52442 8.25 3.66667C8.25 4.1529 8.05685 4.61921 7.71303 4.96303C7.36921 5.30685 6.9029 5.5 6.41667 5.5H0.916667C0.673552 5.5 0.440394 5.59658 0.268485 5.76849C0.0965771 5.9404 0 6.17355 0 6.41667C0 6.65978 0.0965771 6.89294 0.268485 7.06485C0.440394 7.23676 0.673552 7.33334 0.916667 7.33334Z" fill="#00BDAD"/>
</g>
<defs>
<clipPath id="clip0_32_235">
<rect width="22" height="22" fill="white"/>
</clipPath>
</defs>
</svg>
